<?xml version="1.0" encoding="UTF-8"?>
<svg id="_02" data-name="02" xmlns="http://www.w3.org/2000/svg" viewBox="0 0 436.9 441.64">
  <defs>
    <style>
      .cls-1 {
        fill: #fff;
      }

      .cls-2 {
        fill: #0968ae;
      }

      .cls-2, .cls-3 {
        fill-rule: evenodd;
      }

      .cls-4, .cls-3 {
        fill: #3e3a39;
      }

      .cls-5 {
        fill: #ebadbb;
      }
    </style>
  </defs>
  <path class="cls-1" d="M336.7,348.34l27.9-14.21c-3.09-1.55-8.51-2.32-11.6-2.32l19.33-17.01c-6.19-.77-13.14-2.32-19.33.77l6.96-20.88c-14.69-22.68,7.73-78.1-14.69-106.71,0,0,26.73-11.82,18.94-27.15-7.79-15.33-22.88.31-27.6,4.37l.09-.09s25.96-21.38,28.16-34.73c2.21-13.35-15.85,3.67-19.21,7.35l-.38-1.16s36.06-28.62,36.73-41.37c.67-12.75-30.54,7.25-38.28,16.53,0,0,29.75-29.11,27.03-44.88-2.72-15.77-78.83,42.27-86.56,71.65l-1.54.77c-7.74-1.55-15.46-1.55-23.2,0h-6.28l-23.96-6.82c-3.09-6.19-7.12-16.36-11.54-17.15-4.41-.78-10.83,22.42-10.83,22.42-3.09-8.51-7.71-24.04-15.46-23.97.62,6.58-13.33,25.52-13.33,25.52-7.74-1.55-15.47-1.55-23.2,0l-1.55-.77c-7.73-29.38-76.2-84.11-86.56-71.65-10.36,12.46,27.03,44.88,27.03,44.88-7.73-9.28-33.94-25.74-38.28-16.53-4.34,9.21,36.73,41.37,36.73,41.37l-.39,1.16c-3.35-3.67-13.42-13.79-19.2-7.35-5.79,6.45,28.16,34.73,28.16,34.73l.08.09c-4.72-4.06-23.26-11.73-27.6-4.37-4.34,7.37,18.94,27.15,18.94,27.15-22.42,28.61,0,84.03-14.69,106.71l6.96,20.88c-6.19-3.09-13.14-1.55-19.33-.77l19.33,17.01c-3.09,0-8.5.77-11.6,2.32l27.9,14.21s35.87,40.75,111.87,41.04c76,.29,122.71-31.92,125.36-41.48"/>
  <g>
    <path class="cls-2" d="M257.71,190.87h4.43c6.86,1.27,10.54,5.69,11.81,12.55v4.06c-2.86,11.47-8.82,21.44-15.14,29.9-6.24,8.36-13.08,17.47-24.73,20.31h-3.32c-2.45-1.18-4.22-2.44-5.17-4.8-1.24-3.05-.54-8.97-3.7-9.6-3.4-.68-6.52,5.15-8.12,7.38-1.98,2.78-4.78,6.56-8.85,6.65-9.76.21-8.61-13.03-6.65-21.41,1.38-5.89,4.95-13.32,8.86-18.1,3.89-4.76,14.29-9.32,16.97-1.83.97,2.69-1.36,11,2.22,12.18,4.78,1.57,10.13-9.61,12.55-14.03,5.4-9.84,8.95-20.5,18.83-23.25Z"/>
    <path class="cls-2" d="M163.2,244.03v-5.17c2.46-10.47,9.65-17.62,18.09-16.99,15.16,1.14,12.77,21.38,5.54,28.43-7.56,7.37-22.09,5.72-23.63-6.27Z"/>
  </g>
  <path class="cls-3" d="M182.94,288.78c.63,6.09-5.29,11.81-11.81,11.81s-12.1-9.35-11.82-14.92c.28-5.57,5.3-8.7,11.82-8.7s11.18,5.72,11.81,11.81Z"/>
  <path class="cls-3" d="M277.84,288.78c2.05,5.18-5.29,11.81-11.81,11.81s-11.61-5.6-11.81-11.81c-.25-7.39,5.29-11.81,11.81-11.81s9.76,6.63,11.81,11.81Z"/>
  <path class="cls-5" d="M218.58,366.57c24.11,0,34.22-37.86,29.55-47.06-4.67-9.21-29.55-9.46-29.55-9.46,0,0-24.89.25-29.56,9.46-4.67,9.21,5.45,47.06,29.56,47.06Z"/>
  <path class="cls-4" d="M189.22,115.16c6.42,6.59,11.7,14.37,14.99,22.98,2.39,6.26,13.23.38,11.11-5.17-3.58-9.39-9.11-18.03-16.12-25.24-4.37-4.49-14.24,3.05-9.98,7.43h0Z"/>
  <path class="cls-4" d="M214.88,115.05c2.86,6.48,5.43,13.09,8.56,19.44,2.63,5.35,14.5,1.9,11.55-4.1-3.13-6.36-5.7-12.96-8.56-19.44-2.4-5.44-14.25-2.04-11.55,4.1h0Z"/>
  <g>
    <g>
      <path class="cls-4" d="M55.55,97.49c11.68,1.71,25.13,6.86,33.07,15.95,3.91,4.48,15.22-.62,10.93-5.54-9.81-11.23-25.52-17.7-40.05-19.83-6.35-.93-12.02,8.24-3.95,9.42h0Z"/>
      <path class="cls-4" d="M72.9,134.01c5.99.15,12.81,1.74,17.15,6.17,4.69,4.78,12.21-5,8.05-9.24-5.52-5.63-13.71-8.41-21.48-8.6-3.17-.08-5.64,2.08-6.59,5.07-.69,2.17-.29,6.52,2.87,6.6h0Z"/>
      <path class="cls-4" d="M77.36,163.18c5.74-1.7,17.43-1.34,21.63,3.76,3.73,4.53,15.01.18,10.42-5.4-3.48-4.23-9.54-6.05-14.67-7.21-6.94-1.56-14.37-1.96-21.26.08-7.82,2.32-2.92,10.78,3.88,8.77h0Z"/>
      <path class="cls-4" d="M182.79,131.32c-8.2-1.51-16.42-1.54-24.61-.03-5.73,1.06-8.43,12.95-1.41,11.65,7.43-1.37,14.63-1.4,22.06-.03,5.87,1.08,10.51-10.39,3.96-11.59h0Z"/>
      <path class="cls-4" d="M68.12,70.35c19.19,3.64,36.57,13.39,51.69,25.5,13.51,10.82,27.04,25.45,31.76,42.52,2.18,7.89,10.56,2.73,8.69-4.06-5.15-18.62-18.76-34.34-33.17-46.64-16.4-14-36.15-25.43-57.52-29.48-6.59-1.25-7.29,11.06-1.45,12.17h0Z"/>
      <path class="cls-4" d="M90.79,183.24c-12.33,16.25-12.85,37.3-12.09,56.85.39,9.93,1.2,19.84,1.11,29.78-.07,7.57-.61,15.53-4.69,22.11-1.39,2.25-.95,6.06,1.85,6.96,3.15,1.02,5.79-1.63,7.28-4.03,9.06-14.61,6.23-34.73,5.38-50.98-.93-17.83-2.97-39.82,8.51-54.95,4.68-6.17-2.66-11.94-7.36-5.74h0Z"/>
      <path class="cls-4" d="M87.87,308.7c-7.16-3.21-14.41-2.1-21.93-1.12-6.12.8-3.61,12.98,2.6,12.17,5.68-.74,11.52-2,16.96.44,6.59,2.95,7.72-9.09,2.36-11.49h0Z"/>
      <path class="cls-4" d="M88.69,325.27c-4.85.06-9.98.71-14.42,2.8-2.7,1.27-5.13,4.14-4.66,7.32.44,2.96,3.67,3.96,6.16,2.79,2.57-1.21,6.57-1.84,8.92-1.87,3.17-.04,5.98-1.97,7.08-5.01.84-2.32.05-6.06-3.08-6.02h0Z"/>
      <path class="cls-4" d="M98.04,353.92c5.96,0,8.81-12.06,2.18-12.06-5.96,0-8.81,12.06-2.18,12.06h0Z"/>
    </g>
    <g>
      <path class="cls-4" d="M380.19,86.68c-14.53,2.13-30.23,8.57-40.05,19.82-4.23,4.84.52,14.49,5.89,8.35,7.92-9.06,21.39-14.25,33.06-15.96,5.89-.86,7.59-13.15,1.11-12.2h0Z"/>
      <path class="cls-4" d="M363.77,122.47c-8.26.21-17.36,3.01-23.27,9.05-1.97,2.01-3.81,5.3-2.04,8.07,1.6,2.5,5.35,1.9,7.2.02,3.95-4.04,9.85-5.59,15.35-5.73,5.85-.15,9.94-11.58,2.76-11.4h0Z"/>
      <path class="cls-4" d="M362.77,154.25c-10.46-3.1-27.96-1.54-35.38,7.48-4.13,5.02,7.4,9.62,11.17,5.04,1.81-2.2,6.12-2.92,8.71-3.5,4.45-1,9.08-1.21,13.47.09,2.54.75,6.44-.27,7.09-3.19.71-3.17-2.51-5.16-5.05-5.91h0Z"/>
      <path class="cls-4" d="M257.84,143.16c7.43-1.37,14.66-1.29,22.08.08,6.46,1.19,5.4-11.16-.46-12.25-8.21-1.52-16.39-1.44-24.59.08-6.09,1.12-3.19,13.22,2.97,12.09h0Z"/>
      <path class="cls-4" d="M367.87,58.41c-20.9,3.96-40.24,15.05-56.41,28.58-14.91,12.46-29.33,28.66-34.62,47.8-.7,2.55-.73,6.34,2.34,7.42,2.82.99,5.76-1.77,6.46-4.32,4.6-16.66,17.31-30.53,30.29-41.38,15.16-12.67,33.28-22.68,52.82-26.39,5.77-1.09,6.24-13.05-.88-11.7h0Z"/>
      <path class="cls-4" d="M337.83,189.85c11.87,15.64,10.61,36.79,9.69,55.36-.82,16.44-4.09,37.17,5.09,51.97,3.53,5.69,12.85-2.41,9.71-7.47-3.93-6.33-4.7-13.96-4.9-21.27-.27-9.87.59-19.77,1.03-29.63.86-18.92,1.11-40.61-10.91-56.44-4.06-5.35-13.28,2.77-9.71,7.47h0Z"/>
      <path class="cls-4" d="M352.62,320.18c5.42-2.43,11.34-1.14,16.99-.4,6.64.87,6.5-11.47.6-12.24-7.54-.99-14.72-2.05-21.89,1.16-5.42,2.43-1.82,14.22,4.3,11.47h0Z"/>
      <path class="cls-4" d="M349.65,336.95c3.48.04,7.28.46,10.46,1.95,6.06,2.84,9.43-9.04,4.04-11.57-3.94-1.85-8.53-2.66-12.87-2.72-3.13-.04-5.06,2.63-5.45,5.55-.31,2.33.69,6.74,3.81,6.78h0Z"/>
      <path class="cls-4" d="M336.17,353.73c3.18,0,5.62-2.04,6.59-5.08.67-2.12.29-6.6-2.88-6.6s-5.62,2.04-6.59,5.08c-.67,2.12-.29,6.6,2.88,6.6h0Z"/>
    </g>
  </g>
  <path class="cls-4" d="M114.66,363.16c10.2,10.75,25.32,16.09,39.25,19.98,15.79,4.42,32.19,6.94,48.52,8.22,19.18,1.49,38.71.64,57.75-1.95,21.07-2.87,42.16-8.51,60.67-19.21,7.06-4.08-1.39-10.7-6.97-7.47-31.61,18.28-72.02,21.92-107.84,19.45-14.8-1.02-29.63-3.24-44-6.93-12.89-3.31-27.66-7.79-37.09-17.73-4.03-4.25-15.24.42-10.29,5.64h0Z"/>
</svg>
